<svg width="57" height="57" viewBox="0 0 57 57" fill="none" xmlns="http://www.w3.org/2000/svg">
<rect x="0.5" y="0.5" width="56" height="56" rx="12" fill="#FAFAFA"/>
<path d="M35.0452 29.2637C35.057 28.3438 35.3013 27.4419 35.7554 26.6418C36.2095 25.8417 36.8586 25.1695 37.6423 24.6877C37.1444 23.9767 36.4876 23.3916 35.7241 22.9788C34.9605 22.566 34.1113 22.3369 33.2437 22.3098C31.393 22.1155 29.5989 23.4172 28.6558 23.4172C27.6945 23.4172 26.2425 22.3291 24.6789 22.3613C23.6676 22.3939 22.682 22.688 21.8181 23.2149C20.9542 23.7417 20.2415 24.4834 19.7494 25.3676C17.618 29.0578 19.2079 34.4812 21.2496 37.4642C22.2711 38.9248 23.465 40.5564 25.0271 40.4985C26.5558 40.4351 27.1267 39.5238 28.9719 39.5238C30.8 39.5238 31.3356 40.4985 32.9295 40.4617C34.5698 40.4351 35.6033 38.9946 36.589 37.5201C37.3229 36.4794 37.8877 35.3291 38.2624 34.1119C37.3094 33.7089 36.4962 33.0342 35.9241 32.172C35.3519 31.3099 35.0463 30.2984 35.0452 29.2637Z" fill="black"/>
<path d="M32.035 20.347C32.9294 19.2733 33.37 17.8933 33.2633 16.5C31.8969 16.6435 30.6347 17.2966 29.7283 18.329C29.2851 18.8334 28.9456 19.4202 28.7294 20.0559C28.5131 20.6915 28.4242 21.3635 28.4678 22.0336C29.1513 22.0406 29.8274 21.8925 30.4453 21.6003C31.0632 21.3082 31.6067 20.8796 32.035 20.347Z" fill="black"/>
</svg>
