<svg width="57" height="57" viewBox="0 0 57 57" fill="none" xmlns="http://www.w3.org/2000/svg">
<rect x="0.5" y="0.5" width="56" height="56" rx="12" fill="#FAFAFA"/>
<path d="M39.1775 40.4978C39.9133 40.4978 40.5 39.9018 40.5 39.1755V17.8223C40.5 17.0867 39.904 16.5 39.1775 16.5H17.8225C17.096 16.5 16.5 17.096 16.5 17.8223V39.1755C16.5 39.9111 17.096 40.4978 17.8225 40.4978H39.1775Z" fill="#4868AD"/>
<path d="M33.0586 40.5001V31.2064H36.1785L36.6442 27.5839H33.0586V25.2745C33.0586 24.2222 33.3473 23.5144 34.8561 23.5144H36.7746V20.2644C36.4393 20.2179 35.3031 20.1248 33.9806 20.1248C31.2146 20.1248 29.324 21.8103 29.324 24.9113V27.5839H26.1948V31.2064H29.324V40.5001H33.0586Z" fill="white"/>
</svg>
