<svg width="57" height="57" viewBox="0 0 57 57" fill="none" xmlns="http://www.w3.org/2000/svg">
<rect x="0.5" y="0.5" width="56" height="56" rx="12" fill="#FAFAFA"/>
<path fill-rule="evenodd" clip-rule="evenodd" d="M40.02 28.7617C40.02 27.9108 39.9436 27.0926 39.8018 26.3071H28.5V30.9489H34.9582C34.68 32.4489 33.8345 33.7199 32.5636 34.5708V37.5817H36.4418C38.7109 35.4926 40.02 32.4162 40.02 28.7617Z" fill="#4285F4"/>
<path fill-rule="evenodd" clip-rule="evenodd" d="M28.5 40.4944C31.74 40.4944 34.4564 39.4199 36.4418 37.5871L32.5636 34.5762C31.4891 35.2962 30.1145 35.7217 28.5 35.7217C25.3745 35.7217 22.7291 33.6108 21.7855 30.7744H17.7764V33.8835C19.7509 37.8053 23.8091 40.4944 28.5 40.4944Z" fill="#34A853"/>
<path fill-rule="evenodd" clip-rule="evenodd" d="M21.7855 30.7724C21.5455 30.0524 21.4091 29.2833 21.4091 28.4924C21.4091 27.7015 21.5455 26.9324 21.7855 26.2124V23.1033H17.7764C16.9636 24.7233 16.5 26.556 16.5 28.4924C16.5 30.4287 16.9636 32.2615 17.7764 33.8815L21.7855 30.7724Z" fill="#FBBC05"/>
<path fill-rule="evenodd" clip-rule="evenodd" d="M28.5 21.2727C30.2618 21.2727 31.8436 21.8782 33.0873 23.0673L36.5291 19.6255C34.4509 17.6891 31.7346 16.5 28.5 16.5C23.8091 16.5 19.7509 19.1891 17.7764 23.1109L21.7855 26.22C22.7291 23.3836 25.3746 21.2727 28.5 21.2727Z" fill="#EA4335"/>
</svg>
